<svg width="250" height="250" viewBox="0 0 250 250" fill="none" xmlns="http://www.w3.org/2000/svg">
<rect width="250" height="250" fill="white"/>
<path d="M185 80C185 79.1716 184.328 78.5 183.5 78.5C182.672 78.5 182 79.1716 182 80H185ZM66.4393 162.561C67.0251 163.146 67.9749 163.146 68.5607 162.561L78.1066 153.015C78.6924 152.429 78.6924 151.479 78.1066 150.893C77.5208 150.308 76.5711 150.308 75.9853 150.893L67.5 159.379L59.0147 150.893C58.4289 150.308 57.4792 150.308 56.8934 150.893C56.3076 151.479 56.3076 152.429 56.8934 153.015L66.4393 162.561ZM182 80V117H185V80H182ZM180.5 118.5H70.5V121.5H180.5V118.5ZM66 123V161.5H69V123H66ZM70.5 118.5C68.0147 118.5 66 120.515 66 123H69C69 122.172 69.6716 121.5 70.5 121.5V118.5ZM182 117C182 117.828 181.328 118.5 180.5 118.5V121.5C182.985 121.5 185 119.485 185 117H182Z" fill="#9D14FC"/>
<path d="M83 56.5C82.1716 56.5 81.5 57.1716 81.5 58C81.5 58.8284 82.1716 59.5 83 59.5V56.5ZM152.061 59.0607C152.646 58.4749 152.646 57.5251 152.061 56.9393L142.515 47.3934C141.929 46.8076 140.979 46.8076 140.393 47.3934C139.808 47.9792 139.808 48.9289 140.393 49.5147L148.879 58L140.393 66.4853C139.808 67.0711 139.808 68.0208 140.393 68.6066C140.979 69.1924 141.929 69.1924 142.515 68.6066L152.061 59.0607ZM83 59.5H151V56.5H83V59.5Z" fill="#9D14FC"/>
<path d="M83 190.5C82.1716 190.5 81.5 191.172 81.5 192C81.5 192.828 82.1716 193.5 83 193.5V190.5ZM152.061 193.061C152.646 192.475 152.646 191.525 152.061 190.939L142.515 181.393C141.929 180.808 140.979 180.808 140.393 181.393C139.808 181.979 139.808 182.929 140.393 183.515L148.879 192L140.393 200.485C139.808 201.071 139.808 202.021 140.393 202.607C140.979 203.192 141.929 203.192 142.515 202.607L152.061 193.061ZM83 193.5H151V190.5H83V193.5Z" fill="#9D14FC"/>
<circle cx="67" cy="192" r="24" fill="#9BDF8A"/>
<path d="M56 193L61.3787 198.379C62.5503 199.55 64.4497 199.55 65.6213 198.379L77.5 186.5" stroke="#9D14FC" stroke-width="3" stroke-linecap="round"/>
<circle cx="67" cy="58" r="24" fill="#9BDF8A"/>
<path d="M56 59L61.3787 64.3787C62.5503 65.5503 64.4497 65.5503 65.6213 64.3787L77.5 52.5" stroke="#9D14FC" stroke-width="3" stroke-linecap="round"/>
<circle cx="184" cy="58" r="24" fill="#9BDF8A"/>
<path d="M173 59L178.379 64.3787C179.55 65.5503 181.45 65.5503 182.621 64.3787L194.5 52.5" stroke="#9D14FC" stroke-width="3" stroke-linecap="round"/>
<rect x="177.795" y="198" width="11" height="15" rx="3" fill="white" stroke="#9D14FC" stroke-width="3" stroke-linecap="round" stroke-linejoin="round"/>
<path fill-rule="evenodd" clip-rule="evenodd" d="M191.33 198.984C191.33 197.826 192.008 196.79 192.998 196.188C198.312 192.954 201.862 187.107 201.862 180.431C201.862 170.252 193.61 162 183.431 162C173.252 162 165 170.252 165 180.431C165 187.107 168.549 192.954 173.864 196.188C174.853 196.79 175.532 197.826 175.532 198.984V199.811C175.532 201.468 176.875 202.811 178.532 202.811H188.33C189.987 202.811 191.33 201.468 191.33 199.811V198.984Z" fill="white"/>
<path d="M192.998 196.188L192.218 194.906L192.998 196.188ZM200.362 180.431C200.362 186.562 197.104 191.933 192.218 194.906L193.777 197.469C199.521 193.974 203.362 187.652 203.362 180.431H200.362ZM183.431 163.5C192.782 163.5 200.362 171.08 200.362 180.431H203.362C203.362 169.423 194.438 160.5 183.431 160.5V163.5ZM166.5 180.431C166.5 171.08 174.08 163.5 183.431 163.5V160.5C172.423 160.5 163.5 169.423 163.5 180.431H166.5ZM174.644 194.906C169.758 191.933 166.5 186.562 166.5 180.431H163.5C163.5 187.652 167.341 193.974 173.084 197.469L174.644 194.906ZM177.032 199.811V198.984H174.032V199.811H177.032ZM188.33 201.311H178.532V204.311H188.33V201.311ZM189.83 198.984V199.811H192.83V198.984H189.83ZM174.032 199.811C174.032 202.297 176.047 204.311 178.532 204.311V201.311C177.704 201.311 177.032 200.64 177.032 199.811H174.032ZM173.084 197.469C173.702 197.845 174.032 198.432 174.032 198.984H177.032C177.032 197.22 176.005 195.735 174.644 194.906L173.084 197.469ZM188.33 204.311C190.815 204.311 192.83 202.297 192.83 199.811H189.83C189.83 200.64 189.158 201.311 188.33 201.311V204.311ZM192.218 194.906C190.857 195.734 189.83 197.22 189.83 198.984H192.83C192.83 198.432 193.16 197.845 193.777 197.469L192.218 194.906Z" fill="#9D14FC"/>
</svg>
