<svg width="250" height="250" viewBox="0 0 250 250" fill="none" xmlns="http://www.w3.org/2000/svg">
<rect width="250" height="250" fill="white"/>
<path d="M33 142.5L44.6448 135.334C45.5449 134.78 46.5092 134.338 47.5164 134.018L66.0767 128.112C67.3513 127.706 68.6808 127.5 70.0183 127.5H106C112.351 127.5 117.5 132.649 117.5 139V139C117.5 145.351 112.351 150.5 106 150.5H71.5" stroke="#9D14FC" stroke-width="3" stroke-linecap="round"/>
<path d="M118.5 140.5L185.178 101.641C190.152 98.7428 196.519 100.174 199.774 104.921V104.921C203.211 109.933 201.928 116.782 196.91 120.21L155.5 148.5" stroke="#9D14FC" stroke-width="3" stroke-linecap="round"/>
<path d="M90.5 151L91.6368 151.909C97.4298 156.544 104.404 159.465 111.771 160.342V160.342C118.161 161.103 124.641 160.3 130.653 158.004L210.968 127.331C216.512 125.214 222.724 127.983 224.855 133.523V133.523C226.901 138.844 224.444 144.838 219.251 147.191L108.96 197.167C103.384 199.693 97.3335 201 91.2123 201H46.4683C46.158 201 45.8495 201.048 45.554 201.143L33.5 205" stroke="#9D14FC" stroke-width="3" stroke-linecap="round"/>
<rect x="60.5" y="57.9546" width="116" height="58" rx="2" transform="rotate(-14.965 60.5 57.9546)" fill="#7CCA68"/>
<rect x="75.5" y="59" width="116" height="58" rx="2" fill="#9BDF8A"/>
<circle cx="133.5" cy="88" r="16" fill="#7CCA68"/>
</svg>
