<svg width="250" height="250" viewBox="0 0 250 250" fill="none" xmlns="http://www.w3.org/2000/svg">
<rect width="250" height="250" fill="white"/>
<path d="M188.099 107.558L126.547 145.357C125.905 145.752 125.095 145.752 124.453 145.357L62.901 107.558C61.6005 106.759 61.6377 104.857 62.9685 104.109L124.521 69.5498C125.129 69.2083 125.871 69.2083 126.479 69.5498L188.032 104.109C189.362 104.857 189.4 106.759 188.099 107.558Z" fill="#9BDF8A"/>
<path d="M188.099 107.558L128.547 144.129C127.214 144.947 125.5 143.989 125.5 142.425V72.4166C125.5 70.8877 127.146 69.9242 128.479 70.6727L188.032 104.109C189.362 104.857 189.4 106.759 188.099 107.558Z" fill="#7CCA68"/>
<path d="M201.086 127.626L188 106L125.59 144.038L138.72 164.826L201.086 127.626Z" stroke="#9D14FC" stroke-width="3" stroke-linecap="round" stroke-linejoin="round"/>
<path d="M49.0002 127.626L63.2241 105.743L124.496 144.038L111.366 164.826L49.0002 127.626Z" stroke="#9D14FC" stroke-width="3" stroke-linecap="round" stroke-linejoin="round"/>
<path d="M189.051 135.285V171.391L125.59 211.875L62.1299 171.391V136.379" stroke="#9D14FC" stroke-width="3" stroke-linecap="round" stroke-linejoin="round"/>
<rect x="116.837" y="98.0837" width="17.5063" height="26.2594" rx="3" fill="white" stroke="#9D14FC" stroke-width="3" stroke-linecap="round" stroke-linejoin="round"/>
<path fill-rule="evenodd" clip-rule="evenodd" d="M138.72 99.22C138.72 98.0619 139.393 97.0184 140.406 96.4574C149.839 91.2354 156.226 81.1816 156.226 69.636C156.226 52.7162 142.51 39 125.59 39C108.67 39 94.9541 52.7162 94.9541 69.636C94.9541 81.1815 101.341 91.2353 110.774 96.4574C111.787 97.0183 112.46 98.0618 112.46 99.22V103.837C112.46 105.494 113.803 106.837 115.46 106.837H135.72C137.377 106.837 138.72 105.494 138.72 103.837V99.22Z" fill="white"/>
<path d="M110.774 96.4574L110.047 97.7697L110.774 96.4574ZM140.406 96.4574L141.133 97.7698L140.406 96.4574ZM154.726 69.636C154.726 80.6143 148.655 90.1766 139.68 95.1451L141.133 97.7698C151.024 92.2942 157.726 81.7489 157.726 69.636H154.726ZM125.59 40.5C141.681 40.5 154.726 53.5446 154.726 69.636H157.726C157.726 51.8878 143.338 37.5 125.59 37.5V40.5ZM96.4541 69.636C96.4541 53.5446 109.499 40.5 125.59 40.5V37.5C107.842 37.5 93.4541 51.8878 93.4541 69.636H96.4541ZM111.5 95.145C102.525 90.1765 96.4541 80.6142 96.4541 69.636H93.4541C93.4541 81.7488 100.156 92.2941 110.047 97.7697L111.5 95.145ZM113.96 103.837V99.22H110.96V103.837H113.96ZM135.72 105.337H115.46V108.337H135.72V105.337ZM137.22 99.22V103.837H140.22V99.22H137.22ZM110.96 103.837C110.96 106.322 112.975 108.337 115.46 108.337V105.337C114.632 105.337 113.96 104.665 113.96 103.837H110.96ZM110.047 97.7697C110.63 98.0921 110.96 98.6585 110.96 99.22H113.96C113.96 97.4652 112.944 95.9445 111.5 95.145L110.047 97.7697ZM135.72 108.337C138.205 108.337 140.22 106.322 140.22 103.837H137.22C137.22 104.665 136.548 105.337 135.72 105.337V108.337ZM139.68 95.1451C138.236 95.9446 137.22 97.4653 137.22 99.22H140.22C140.22 98.6585 140.551 98.0922 141.133 97.7698L139.68 95.1451Z" fill="#9D14FC"/>
</svg>
