<svg width="229" height="313" viewBox="0 0 229 313" fill="none" xmlns="http://www.w3.org/2000/svg">
<path d="M194.777 279.387C200.849 268.054 140.694 194.288 129.833 177.524C115.964 178.635 111.937 181.624 103.541 184.01C93.0454 186.994 68.6985 274.902 82.3571 286.738C89.2706 292.729 120.284 314.66 141.784 292.754C173.784 304.66 191.029 286.382 194.777 279.387Z" fill="#3B135B"/>
<path d="M157.309 228.45C161.323 220.951 124.04 170.851 116.862 159.76C107.695 160.496 105.032 162.474 99.4824 164.054C92.5447 166.029 90.6127 228.634 99.6399 236.464C108.667 244.294 152.291 237.824 157.309 228.45Z" fill="white"/>
<path d="M93.4137 182.295C94.7878 170.615 103.413 184.917 107.746 177.636C112.079 170.354 114.243 181.324 118.183 173.721C121.336 167.638 123.489 160.45 124.172 157.617" stroke="#3B135B"/>
<path d="M93.3888 218.173C95.413 200.966 108.12 222.036 114.503 211.309C120.886 200.581 124.074 216.743 129.879 205.541C134.523 196.58 137.696 185.992 138.702 181.818" stroke="#3B135B"/>
<path d="M87.7288 188.841C89.626 172.714 101.535 192.462 107.518 182.408C113.5 172.354 116.488 187.501 121.928 177.002C126.281 168.603 129.255 158.68 130.197 154.768" stroke="#3B135B"/>
<path d="M85.0137 227.817C87.8086 204.059 105.353 233.15 114.167 218.339C122.98 203.527 127.381 225.842 135.396 210.375C141.809 198.002 146.189 183.383 147.578 177.62" stroke="#3B135B"/>
<path d="M193.5 296C193.5 296.276 193.724 296.5 194 296.5C194.276 296.5 194.5 296.276 194.5 296H193.5ZM191.053 282.224C192.016 284.15 192.632 286.836 193.005 289.446C193.376 292.046 193.5 294.522 193.5 296H194.5C194.5 294.478 194.374 291.954 193.995 289.304C193.618 286.664 192.984 283.85 191.947 281.776L191.053 282.224Z" fill="#3B135B"/>
<path d="M87.1923 299.026C87.2455 299.297 87.0691 299.56 86.7981 299.613C86.5272 299.667 86.2643 299.49 86.2111 299.219L87.1923 299.026ZM86.4537 285.093C86.0675 287.142 86.1028 289.883 86.3141 292.505C86.5246 295.118 86.9062 297.572 87.1923 299.026L86.2111 299.219C85.9182 297.73 85.5311 295.239 85.3173 292.585C85.1042 289.94 85.0593 287.092 85.4711 284.907L86.4537 285.093Z" fill="#3B135B"/>
<path d="M65.6121 157.192C68.3225 175.636 94.8527 163.462 116.555 157.911C127.364 155.146 142.95 151.454 143.465 139.271C144.141 123.295 123.7 101.998 131.725 100.852C137.568 97.6167 154.874 119.485 159.598 134.817C166.275 156.491 162.328 178.6 158.22 182.418C167.13 201.322 174.469 228.228 156.463 233.652C153.016 235.141 114.475 161.445 110.777 162.059C107.819 162.549 104.247 164.06 101.706 165.062C95.1366 165.734 109.675 240.418 101.587 241.056C57.7105 244.518 70.0604 218.451 76.7836 202.661C55.6312 202.491 51.7276 178.04 51.0926 166.014C50.4576 153.989 61.9958 111.848 67.694 112.576C73.3921 113.305 62.9017 138.748 65.6121 157.192Z" fill="#3B135B"/>
<path d="M136.076 100.555L135.89 100.692L135.873 100.922C135.77 102.334 135.243 103.561 134.496 104.407C133.749 105.253 132.806 105.698 131.844 105.628C130.882 105.558 130.013 104.982 129.396 104.037C128.779 103.092 128.434 101.801 128.537 100.39C128.556 100.131 128.691 99.7681 128.98 99.3045C129.263 98.85 129.668 98.3405 130.169 97.7977C131.171 96.7129 132.521 95.5336 133.945 94.4456C135.368 93.3583 136.851 92.3732 138.113 91.6731C138.745 91.3228 139.312 91.0488 139.783 90.8688C140.272 90.682 140.597 90.6208 140.769 90.6333C140.93 90.6449 141.049 90.7058 141.147 90.812C141.253 90.9268 141.352 91.116 141.413 91.4013C141.536 91.9772 141.477 92.8332 141.157 93.863C140.522 95.9092 138.904 98.4854 136.076 100.555Z" fill="white" stroke="black"/>
<path d="M63.019 113.616L63.2502 113.611L63.4036 113.784C64.3424 114.843 65.5073 115.497 66.6148 115.715C67.7218 115.933 68.7411 115.713 69.4626 115.074C70.184 114.434 70.5241 113.448 70.4401 112.323C70.3561 111.197 69.8458 109.963 68.907 108.904C68.7351 108.71 68.4074 108.504 67.8961 108.311C67.3948 108.122 66.7636 107.963 66.0357 107.837C64.581 107.584 62.7926 107.467 61.0006 107.468C59.2096 107.469 57.4333 107.587 56.0054 107.798C55.2907 107.903 54.6736 108.03 54.1899 108.174C53.6879 108.322 53.3928 108.471 53.2639 108.585C53.1434 108.692 53.0858 108.813 53.0724 108.957C53.058 109.112 53.094 109.323 53.219 109.587C53.4714 110.119 54.0382 110.763 54.9179 111.386C56.6656 112.626 59.5156 113.689 63.019 113.616Z" fill="white" stroke="black"/>
<path d="M101.769 131.4L100.79 131.465C100.524 133.546 98.9425 135.941 96.9731 138.135C95.022 140.31 92.7684 142.203 91.2948 143.277L91.0515 143.454L91.0944 143.752C91.2441 144.792 91.6623 146.485 92.3016 148.182C92.9368 149.868 93.8157 151.625 94.9174 152.738C96.7933 154.632 98.9877 155.785 100.264 156.301C99.7773 158.106 99.6474 160.306 99.6886 162.322C97.7914 162.851 94.1191 163.807 92.0182 164.351C90.0417 164.863 87.2152 165.506 85.6422 165.796C85.2681 151.338 87.8475 140.574 91.3041 133.7C93.0566 130.215 95.0225 127.753 96.9204 126.307C98.8217 124.858 100.591 124.47 102.021 124.967L102.211 125.033L102.393 124.949C105.186 123.67 107.884 124.608 110.45 126.998C113.025 129.395 115.368 133.178 117.338 137.313C119.304 141.439 120.88 145.874 121.936 149.537C122.463 151.369 122.86 153.002 123.11 154.302C123.304 155.311 123.403 156.086 123.418 156.593C120.22 156.987 113.261 158.298 110.528 159.047L108.356 154.816C108.925 154.286 109.682 153.492 110.423 152.564C111.297 151.469 112.172 150.159 112.682 148.851C113.68 146.295 113.996 143.177 114.037 141.887L114.06 141.186L113.39 141.393C113.187 141.456 112.607 141.486 111.58 141.173C110.574 140.868 109.19 140.249 107.415 139.096C103.941 136.841 102.197 133.008 101.769 131.4Z" fill="white" stroke="black"/>
<path d="M73.7836 203.468C86.4368 202.146 84.4338 197.744 80.7903 197.278" stroke="white"/>
<path d="M158.702 182.661C151.396 187.399 153.989 189.486 156.356 188.643" stroke="white"/>
<path d="M53.529 31.4588C52.5038 121.984 131.817 126.497 131.119 64.2825C130.328 -6.2193 52.9203 1.68779 57.1296 63.534" stroke="#9BDF8A" stroke-opacity="0.3"/>
<path d="M88.6677 105.395C160.464 96.3281 141.922 13.2728 92.177 23.3816C35.8054 34.8369 47.7376 117.788 96.9339 103.918" stroke="#9BDF8A" stroke-opacity="0.3"/>
<path d="M77.6804 54.5418C75.2965 56.58 68.3172 60.6258 65.1256 62.3939C68.3046 72.5301 74.7047 93.1003 74.8736 94.2909C75.0847 95.7792 88.9081 94.731 97.4146 94.3149C105.921 93.8988 125.704 87.5426 132.725 84.5739C138.324 82.8849 136.184 72.7288 130.61 73.5176C136.229 72.3765 133.83 61.7013 128.527 63.1566C133.716 61.4719 130.634 51.6221 124.891 53.1041C130.524 51.4523 126.86 41.4569 121.843 42.6086C119.631 43.1165 107.39 46.0703 101.08 47.3391C104.116 41.8728 102.713 16.9027 95.3678 19.4853C91.7513 20.7569 92.3728 36.2758 90.2422 40.0999C88.1116 43.924 85.9837 45.1972 84.7062 46.6839C83.4287 48.1706 80.6602 51.9941 77.6804 54.5418Z" fill="#8D00FB"/>
<path d="M70.6303 96.3119L60.8933 64.3546L45.3707 68.796L54.8996 100.861L70.6303 96.3119Z" fill="#3B135B"/>
<path d="M58.3542 62.9066L66.539 60.4374L77.2495 95.6462L68.4483 98.1276L58.3542 62.9066Z" fill="white" stroke="black"/>
</svg>
