<svg width="250" height="250" viewBox="0 0 250 250" fill="none" xmlns="http://www.w3.org/2000/svg">
<rect width="250" height="250" fill="white"/>
<rect x="39" y="49" width="172" height="152" rx="4" fill="white" stroke="#9D14FC" stroke-width="3" stroke-linecap="round"/>
<path d="M39 53C39 50.7909 40.7909 49 43 49H207C209.209 49 211 50.7909 211 53V75H39V53Z" fill="white" stroke="#9D14FC" stroke-width="3" stroke-linecap="round"/>
<rect width="128" height="8" rx="2" transform="matrix(1 0 0 -1 47 66)" fill="white" stroke="#9D14FC" stroke-width="3" stroke-linecap="round"/>
<rect width="16" height="8" rx="2" transform="matrix(1 0 0 -1 184 66)" fill="white" stroke="#9D14FC" stroke-width="3" stroke-linecap="round"/>
<path d="M178.801 132.506C181.209 134.674 181.192 138.31 178.769 140.462C169.712 148.506 147.437 166 125 166C102.563 166 80.288 148.506 71.2305 140.462C68.8076 138.31 68.7909 134.674 71.1995 132.506C80.1535 124.447 102.174 107 125 107C147.826 107 169.847 124.447 178.801 132.506Z" fill="white" stroke="#9D14FC" stroke-width="3" stroke-linecap="round"/>
<circle cx="125.5" cy="136.5" r="21.5" fill="#9BDF8A"/>
<circle cx="125.5" cy="136.5" r="7.5" fill="#9BDF8A"/>
<circle cx="125.5" cy="136.5" r="9.5" fill="#7CCA68"/>
<circle cx="144.5" cy="123.5" r="9.5" fill="white"/>
<path d="M179 95H188C189.657 95 191 96.3431 191 98V107" stroke="#9D14FC" stroke-width="3" stroke-linecap="round"/>
<path d="M179 181H188C189.657 181 191 179.657 191 178V169" stroke="#9D14FC" stroke-width="3" stroke-linecap="round"/>
<path d="M71 95H62C60.3431 95 59 96.3431 59 98V107" stroke="#9D14FC" stroke-width="3" stroke-linecap="round"/>
<path d="M71 181H62C60.3431 181 59 179.657 59 178V169" stroke="#9D14FC" stroke-width="3" stroke-linecap="round"/>
</svg>
