<svg width="250" height="250" viewBox="0 0 250 250" fill="none" xmlns="http://www.w3.org/2000/svg">
<rect width="250" height="250" fill="white"/>
<path d="M109.012 145.311V216H141.487V147.328C141.487 141.805 145.965 137.328 151.487 137.328H183.568V150.135L217.872 120.405L183.568 91.5889V105.311H149.012C126.921 105.311 109.012 123.219 109.012 145.311Z" fill="white" stroke="#9D14FC" stroke-width="3" stroke-linecap="round"/>
<circle cx="191" cy="194" r="24" fill="#9BDF8A"/>
<path d="M180 195L185.379 200.379C186.55 201.55 188.45 201.55 189.621 200.379L201.5 188.5" stroke="#9D14FC" stroke-width="3" stroke-linecap="round"/>
<path d="M141.03 67.8045L141.03 151.05L109.013 151.05L109.013 67.8045L96.2056 67.8045L125.936 33.5L154.752 67.8045L141.03 67.8045Z" fill="white" stroke="#9D14FC" stroke-width="3" stroke-linecap="round"/>
<path d="M141.488 145.311V216H109.013V147.328C109.013 141.805 104.535 137.328 99.0126 137.328H66.9324V150.135L32.6279 120.405L66.9324 91.5889V105.311H101.488C123.579 105.311 141.488 123.219 141.488 145.311Z" fill="white" stroke="#9D14FC" stroke-width="3" stroke-linecap="round"/>
</svg>
