<svg width="250" height="250" viewBox="0 0 250 250" fill="none" xmlns="http://www.w3.org/2000/svg">
<rect width="250" height="250" fill="white"/>
<path fill-rule="evenodd" clip-rule="evenodd" d="M135.299 53.5302C134.721 54.1082 133.776 54.0654 133.198 53.4874V53.4874C126.091 46.3809 114.569 46.3809 107.463 53.4874C100.356 60.5938 100.356 72.1156 107.463 79.222V79.222C108.041 79.8 108.084 80.7457 107.506 81.3237L93.329 95.5004C92.548 96.2815 92.548 97.5478 93.329 98.3288L149.476 154.476C150.257 155.257 151.523 155.257 152.304 154.476L202.794 103.986C206.699 100.08 206.699 93.7488 202.794 89.8436L157.961 45.0105C154.056 41.1052 147.724 41.1052 143.819 45.0105L135.299 53.5302Z" fill="#9BDF8A"/>
<path d="M202.794 89.8436L201.733 90.9042L202.794 89.8436ZM157.961 45.0105L159.022 43.9498L157.961 45.0105ZM108.524 54.548C115.044 48.0274 125.616 48.0274 132.137 54.548L134.258 52.4267C126.566 44.7345 114.094 44.7345 106.402 52.4267L108.524 54.548ZM108.524 78.1613C102.003 71.6407 102.003 61.0687 108.524 54.548L106.402 52.4267C98.71 60.1189 98.71 72.5905 106.402 80.2827L108.524 78.1613ZM94.3897 96.5611L108.566 82.3844L106.445 80.263L92.2684 94.4398L94.3897 96.5611ZM150.536 153.415L94.3897 97.2682L92.2684 99.3895L148.415 155.536L150.536 153.415ZM201.733 102.925L151.244 153.415L153.365 155.536L203.855 105.046L201.733 102.925ZM201.733 90.9042C205.053 94.2237 205.053 99.6056 201.733 102.925L203.855 105.046C208.346 100.555 208.346 93.2739 203.855 88.7829L201.733 90.9042ZM156.9 46.0711L201.733 90.9042L203.855 88.7829L159.022 43.9498L156.9 46.0711ZM144.88 46.0711C148.199 42.7517 153.581 42.7517 156.9 46.0711L159.022 43.9498C154.531 39.4588 147.249 39.4588 142.758 43.9498L144.88 46.0711ZM136.36 54.5909L144.88 46.0711L142.758 43.9498L134.239 52.4695L136.36 54.5909ZM92.2684 94.4398C90.9015 95.8066 90.9015 98.0227 92.2684 99.3895L94.3897 97.2682C94.1944 97.0729 94.1944 96.7563 94.3897 96.5611L92.2684 94.4398ZM106.402 80.2827C106.408 80.2886 106.412 80.2948 106.415 80.301C106.418 80.308 106.418 80.3133 106.418 80.315C106.418 80.3164 106.418 80.3104 106.423 80.2984C106.425 80.2923 106.428 80.2856 106.433 80.2788C106.437 80.272 106.441 80.2667 106.445 80.263L108.566 82.3844C109.786 81.1651 109.63 79.2682 108.524 78.1613L106.402 80.2827ZM148.415 155.536C149.782 156.903 151.998 156.903 153.365 155.536L151.244 153.415C151.048 153.61 150.732 153.61 150.536 153.415L148.415 155.536ZM132.137 54.548C133.244 55.6548 135.141 55.8101 136.36 54.5909L134.239 52.4695C134.242 52.4659 134.248 52.4614 134.254 52.457C134.261 52.4527 134.268 52.4494 134.274 52.4471C134.286 52.4425 134.292 52.4429 134.291 52.4429C134.289 52.4428 134.283 52.4422 134.277 52.4393C134.27 52.4366 134.264 52.4327 134.258 52.4267L132.137 54.548Z" fill="#9BDF8A"/>
<path fill-rule="evenodd" clip-rule="evenodd" d="M73.6862 112.999C74.0472 113.36 74.3899 113.733 74.7143 114.115L91.9147 96.915L108.535 113.535C115.641 106.429 127.163 106.429 134.27 113.535C141.376 120.642 141.376 132.163 134.27 139.27L150.89 155.89L98.9858 207.794C95.0805 211.7 88.7489 211.7 84.8436 207.794L40.0106 162.961C36.1053 159.056 36.1053 152.724 40.0106 148.819L49.0677 139.762C48.685 139.438 48.3126 139.095 47.9515 138.734C40.8451 131.627 40.8451 120.106 47.9515 112.999C55.0579 105.893 66.5797 105.893 73.6862 112.999Z" fill="white"/>
<path d="M74.7143 114.115L73.57 115.085L74.6232 116.328L75.775 115.176L74.7143 114.115ZM91.9147 96.915L92.9754 95.8543L91.9147 94.7936L90.854 95.8543L91.9147 96.915ZM108.535 113.535L107.474 114.596L108.535 115.657L109.596 114.596L108.535 113.535ZM134.27 139.27L133.209 138.209L132.148 139.27L133.209 140.331L134.27 139.27ZM150.89 155.89L151.951 156.951L153.011 155.89L151.951 154.83L150.89 155.89ZM40.0106 148.819L38.9499 147.758L40.0106 148.819ZM49.0677 139.762L50.1284 140.823L51.2801 139.671L50.0376 138.618L49.0677 139.762ZM75.8586 113.146C75.5076 112.731 75.137 112.329 74.7468 111.939L72.6255 114.06C72.9574 114.392 73.2722 114.734 73.57 115.085L75.8586 113.146ZM90.854 95.8543L73.6536 113.055L75.775 115.176L92.9754 97.9756L90.854 95.8543ZM109.596 112.475L92.9754 95.8543L90.854 97.9756L107.474 114.596L109.596 112.475ZM109.596 114.596C116.116 108.075 126.688 108.075 133.209 114.596L135.33 112.475C127.638 104.782 115.167 104.782 107.474 112.475L109.596 114.596ZM133.209 114.596C139.73 121.117 139.73 131.689 133.209 138.209L135.33 140.331C143.022 132.638 143.022 120.167 135.33 112.475L133.209 114.596ZM151.951 154.83L135.33 138.209L133.209 140.331L149.829 156.951L151.951 154.83ZM100.046 208.855L151.951 156.951L149.829 154.83L97.9251 206.734L100.046 208.855ZM83.783 208.855C88.274 213.346 95.5554 213.346 100.046 208.855L97.9251 206.734C94.6057 210.053 89.2238 210.053 85.9043 206.734L83.783 208.855ZM38.9499 164.022L83.783 208.855L85.9043 206.734L41.0712 161.901L38.9499 164.022ZM38.9499 147.758C34.4589 152.249 34.4589 159.531 38.9499 164.022L41.0712 161.901C37.7518 158.581 37.7518 153.199 41.0712 149.88L38.9499 147.758ZM48.0071 138.701L38.9499 147.758L41.0712 149.88L50.1284 140.823L48.0071 138.701ZM46.8909 139.794C47.281 140.185 47.6838 140.555 48.0978 140.906L50.0376 138.618C49.6863 138.32 49.3441 138.005 49.0122 137.673L46.8909 139.794ZM46.8908 111.939C39.1986 119.631 39.1986 132.102 46.8909 139.794L49.0122 137.673C42.4915 131.153 42.4915 120.58 49.0122 114.06L46.8908 111.939ZM74.7468 111.939C67.0546 104.246 54.5831 104.246 46.8908 111.939L49.0122 114.06C55.5328 107.539 66.1049 107.539 72.6255 114.06L74.7468 111.939Z" fill="#9D14FC"/>
</svg>
