<svg width="44" height="44" viewBox="0 0 44 44" fill="none" xmlns="http://www.w3.org/2000/svg">
<path d="M32.8515 39.3757L32.8515 39C32.9164 39 32.9803 38.9859 33.0386 38.959C33.0969 38.9321 33.1479 38.8932 33.1884 38.8455C33.2289 38.7978 33.258 38.7424 33.2742 38.6834C33.2903 38.6246 33.2933 38.5631 33.283 38.5031L32.8515 39.3757ZM32.8515 39.3757L32.8502 39C32.7789 39.0002 32.7089 38.9831 32.6466 38.9504L32.6454 38.9499L25.2382 35.0845C23.2093 34.0258 20.7909 34.0257 18.7619 35.0843L11.3547 38.9489C11.3544 38.949 11.3541 38.9491 11.3539 38.9493C11.2812 38.9868 11.1989 39.0038 11.1163 38.9977C11.0334 38.9917 10.9546 38.9628 10.8886 38.9152C10.8227 38.8676 10.7725 38.8035 10.7426 38.7307C10.7128 38.6581 10.7041 38.5791 10.7172 38.5023C10.7173 38.5022 10.7173 38.5021 10.7173 38.5019L12.5726 27.7715C12.6854 27.1191 12.4681 26.4531 11.9921 25.9929L4.12971 18.3908L4.12954 18.3906C4.07151 18.3345 4.03128 18.2643 4.01235 18.1883C3.99343 18.1123 3.99628 18.0327 4.02069 17.9581C4.04512 17.8834 4.09046 17.816 4.15264 17.764C4.21488 17.7119 4.29139 17.6775 4.37371 17.6656L4.37377 17.6656L15.2421 16.0989C15.8923 16.0052 16.455 15.5982 16.7476 15.01L21.6062 5.24051C21.6063 5.24045 21.6063 5.2404 21.6063 5.24034C21.6415 5.16962 21.6965 5.10899 21.7661 5.0661C21.8357 5.02314 21.9168 5 22.0001 5C22.0833 5 22.1644 5.02314 22.2341 5.0661C22.3036 5.10899 22.3586 5.16963 22.3938 5.24034C22.3938 5.2404 22.3939 5.24045 22.3939 5.24051L27.2526 15.01C27.5451 15.5982 28.1078 16.0052 28.758 16.0989L39.6254 17.6656L39.626 17.6657C39.7084 17.6775 39.7849 17.7119 39.8472 17.7639C39.9094 17.8159 39.9548 17.8834 39.9793 17.958C40.0037 18.0326 40.0066 18.1123 39.9877 18.1883C39.9688 18.2643 39.9285 18.3346 39.8705 18.3907L39.8704 18.3908L32.008 25.9929C31.5321 26.4531 31.3147 27.1191 31.4275 27.7715L33.283 38.5027L32.8515 39.3757Z" stroke="#4787E8" stroke-width="2" stroke-linecap="round"/>
</svg>
