<svg width="44" height="44" viewBox="0 0 44 44" fill="none" xmlns="http://www.w3.org/2000/svg">
<path d="M32.8537 40C32.62 40.0008 32.3896 39.9446 32.1828 39.8364L24.7756 35.9711C23.0365 35.0636 20.9636 35.0635 19.2244 35.9709L11.8154 39.8364C11.5781 39.9596 11.3107 40.0146 11.0436 39.9951C10.7764 39.9756 10.5201 39.8824 10.3034 39.7261C10.0868 39.5698 9.91845 39.3565 9.81744 39.1103C9.71642 38.8641 9.68673 38.5948 9.73171 38.3328L11.5872 27.6011C11.6436 27.2749 11.535 26.9419 11.297 26.7118L3.4346 19.1097C3.24238 18.9239 3.10638 18.6884 3.042 18.43C2.97761 18.1715 2.98742 17.9003 3.07029 17.647C3.15317 17.3938 3.30581 17.1686 3.51095 16.997C3.71609 16.8254 3.96554 16.7141 4.23109 16.6759L15.0995 15.1091C15.4246 15.0623 15.7059 14.8588 15.8522 14.5647L20.7109 4.79504C20.8297 4.55639 21.0133 4.35545 21.2411 4.21495C21.469 4.07446 21.7318 4 22.0001 4C22.2683 4 22.5312 4.07446 22.759 4.21495C22.9868 4.35545 23.1705 4.55639 23.2892 4.79504L28.148 14.5647C28.2942 14.8588 28.5756 15.0623 28.9007 15.1091L39.7681 16.6759C40.0337 16.714 40.2833 16.8251 40.4885 16.9967C40.6938 17.1683 40.8466 17.3934 40.9296 17.6467C41.0125 17.8999 41.0224 18.1712 40.9581 18.4298C40.8937 18.6883 40.7578 18.9238 40.5655 19.1097L32.7032 26.7118C32.4652 26.9419 32.3565 27.2749 32.4129 27.6011L34.2684 38.3328C34.3037 38.5375 34.2935 38.7473 34.2386 38.9477C34.1837 39.1481 34.0854 39.3342 33.9505 39.493C33.8156 39.6517 33.6474 39.7794 33.4576 39.8669C33.2678 39.9545 33.0611 39.9999 32.8518 40H32.8537Z" fill="url(#paint0_linear_37_13)"/>
<path d="M32.8537 40C32.62 40.0008 32.3896 39.9446 32.1828 39.8364L24.7756 35.9711C23.0365 35.0636 20.9636 35.0635 19.2244 35.9709L11.8154 39.8364C11.5781 39.9596 11.3107 40.0146 11.0436 39.9951C10.7764 39.9756 10.5201 39.8824 10.3034 39.7261C10.0868 39.5698 9.91846 39.3565 9.81744 39.1103C9.71643 38.8641 9.68674 38.5948 9.73172 38.3328L11.534 27.9093C11.6169 27.4298 12.0397 27.0851 12.5249 27.049C22.7412 26.289 18.7834 11.6935 28.2816 14.999C28.3447 15.021 28.4148 15.0391 28.481 15.0486L39.7681 16.6759C40.0337 16.714 40.2833 16.8251 40.4885 16.9967C40.6938 17.1682 40.8466 17.3934 40.9296 17.6467C41.0125 17.8999 41.0224 18.1712 40.9581 18.4297C40.8938 18.6883 40.7578 18.9238 40.5655 19.1097L32.7032 26.7118C32.4652 26.9419 32.3565 27.2749 32.4129 27.6011L34.2684 38.3328C34.3037 38.5374 34.2936 38.7473 34.2386 38.9477C34.1837 39.1481 34.0854 39.3342 33.9505 39.493C33.8156 39.6517 33.6474 39.7794 33.4576 39.8669C33.2678 39.9545 33.0611 39.9999 32.8518 40H32.8537Z" fill="#5C7DF6"/>
<defs>
<linearGradient id="paint0_linear_37_13" x1="13" y1="12" x2="25.9971" y2="27.0713" gradientUnits="userSpaceOnUse">
<stop offset="0.235192" stop-color="#9AB0FD"/>
<stop offset="0.82007" stop-color="#C3D5AD"/>
</linearGradient>
</defs>
</svg>
