<svg width="44" height="44" viewBox="0 0 44 44" fill="none" xmlns="http://www.w3.org/2000/svg">
<path d="M32.8515 39L32.8515 39.3752L32.8502 39C32.7789 39.0002 32.7089 38.9831 32.6466 38.9504L32.6454 38.9499L22.4627 33.6362L22.0001 33.3948L21.5375 33.6362L11.3547 38.9489C11.3544 38.949 11.3541 38.9492 11.3539 38.9493C11.2812 38.9868 11.1989 39.0038 11.1163 38.9977C11.0334 38.9917 10.9546 38.9628 10.8886 38.9152C10.8227 38.8676 10.7724 38.8035 10.7426 38.7307C10.7128 38.6581 10.7041 38.5791 10.7172 38.5023C10.7173 38.5022 10.7173 38.5021 10.7173 38.5019L12.6628 27.25L12.7529 26.7286L12.3725 26.3608L4.12971 18.3908L4.12954 18.3906C4.07151 18.3345 4.03128 18.2643 4.01235 18.1883C3.99343 18.1123 3.99628 18.0327 4.02069 17.9581C4.04512 17.8834 4.09046 17.816 4.15264 17.764C4.21488 17.7119 4.29139 17.6775 4.37371 17.6656L4.37377 17.6656L15.7613 16.0241L16.2804 15.9492L16.514 15.4796L21.6062 5.24051C21.6063 5.24045 21.6063 5.2404 21.6063 5.24034C21.6415 5.16962 21.6965 5.10899 21.7661 5.0661C21.8357 5.02314 21.9168 5 22.0001 5C22.0833 5 22.1644 5.02314 22.2341 5.0661C22.3036 5.10902 22.3587 5.16972 22.3939 5.24051L27.4861 15.4796L27.7197 15.9492L28.2388 16.0241L39.6254 17.6656L39.626 17.6657C39.7084 17.6775 39.7849 17.7119 39.8472 17.7639C39.9094 17.8159 39.9548 17.8834 39.9793 17.958C40.0037 18.0326 40.0066 18.1123 39.9877 18.1883C39.9688 18.2643 39.9285 18.3346 39.8705 18.3907L39.8704 18.3908L31.6276 26.3608L31.2472 26.7286L31.3373 27.25L33.283 38.5027C33.2933 38.5628 33.2904 38.6244 33.2742 38.6834C33.258 38.7424 33.2289 38.7978 33.1884 38.8455C33.1479 38.8932 33.0969 38.9321 33.0386 38.959C32.9803 38.9859 32.9164 39 32.8515 39Z" stroke="black" stroke-width="2"/>
</svg>
