<svg width="44" height="44" viewBox="0 0 44 44" fill="none" xmlns="http://www.w3.org/2000/svg">
<path d="M7 10C7 6.68629 9.68629 4 13 4H28.1716C28.702 4 29.2107 4.21071 29.5858 4.58579L36.4142 11.4142C36.7893 11.7893 37 12.298 37 12.8284V34C37 37.3137 34.3137 40 31 40H13C9.68629 40 7 37.3137 7 34V10Z" fill="#5C7DF6"/>
<path fill-rule="evenodd" clip-rule="evenodd" d="M13 18C13 17.4477 13.4477 17 14 17H30C30.5523 17 31 17.4477 31 18C31 18.5523 30.5523 19 30 19H14C13.4477 19 13 18.5523 13 18ZM13 23C13 22.4477 13.4477 22 14 22H30C30.5523 22 31 22.4477 31 23C31 23.5523 30.5523 24 30 24H14C13.4477 24 13 23.5523 13 23ZM14 27C13.4477 27 13 27.4477 13 28C13 28.5523 13.4477 29 14 29H30C30.5523 29 31 28.5523 31 28C31 27.4477 30.5523 27 30 27H14Z" fill="url(#paint0_linear_37_5)"/>
<path d="M27 10V4H28.1716C28.702 4 29.2107 4.21071 29.5858 4.58579L36.4142 11.4142C36.7893 11.7893 37 12.298 37 12.8284V14H31C28.7909 14 27 12.2091 27 10Z" fill="url(#paint1_linear_37_5)"/>
<defs>
<linearGradient id="paint0_linear_37_5" x1="8" y1="16" x2="34.5" y2="41" gradientUnits="userSpaceOnUse">
<stop offset="0.235192" stop-color="#9AB0FD"/>
<stop offset="0.82007" stop-color="#C3D5AD"/>
</linearGradient>
<linearGradient id="paint1_linear_37_5" x1="27.5" y1="9.5" x2="40.0997" y2="16.4059" gradientUnits="userSpaceOnUse">
<stop offset="0.235192" stop-color="#9AB0FD"/>
<stop offset="0.82007" stop-color="#C3D5AD"/>
</linearGradient>
</defs>
</svg>
