<svg width="44" height="44" viewBox="0 0 44 44" fill="none" xmlns="http://www.w3.org/2000/svg">
<path d="M31 39H13C10.2386 39 8 36.7614 8 34V10C8 7.23858 10.2386 5 13 5H26.5147C27.8408 5 29.1126 5.52678 30.0503 6.46447L34.5355 10.9497C35.4732 11.8874 36 13.1592 36 14.4853V34C36 36.7614 33.7614 39 31 39Z" stroke="#4787E8" stroke-width="2" stroke-linecap="round"/>
<path d="M28 9V5.41421C28 5.18545 28.1854 5 28.4142 5C28.5241 5 28.6294 5.04364 28.7071 5.12132L35.8787 12.2929C35.9564 12.3706 36 12.4759 36 12.5858C36 12.8146 35.8146 13 35.5858 13H32C29.7909 13 28 11.2091 28 9Z" stroke="#4787E8" stroke-width="2" stroke-linecap="round"/>
</svg>
