<svg width="44" height="44" viewBox="0 0 44 44" fill="none" xmlns="http://www.w3.org/2000/svg">
<path d="M2 10C2 6.68629 4.68629 4 8 4H14.1833C15.3679 4 16.5259 4.35063 17.5115 5.0077L20.4885 6.9923C21.4741 7.64937 22.6321 8 23.8167 8H36C39.3137 8 42 10.6863 42 14V34C42 37.3137 39.3137 40 36 40H8C4.68629 40 2 37.3137 2 34V10Z" fill="url(#paint0_linear_37_2)"/>
<path d="M2 18C2 14.6863 4.68629 12 8 12H14.1833C15.3679 12 16.5259 11.6494 17.5115 10.9923L20.4885 9.0077C21.4741 8.35063 22.6321 8 23.8167 8H36C39.3137 8 42 10.6863 42 14V34C42 37.3137 39.3137 40 36 40H8C4.68629 40 2 37.3137 2 34V18Z" fill="#5C7DF6"/>
<defs>
<linearGradient id="paint0_linear_37_2" x1="7.5" y1="4" x2="20.6949" y2="18.9862" gradientUnits="userSpaceOnUse">
<stop offset="0.235192" stop-color="#9AB0FD"/>
<stop offset="0.82007" stop-color="#C3D5AD"/>
</linearGradient>
</defs>
</svg>
