<svg width="44" height="44" viewBox="0 0 44 44" fill="none" xmlns="http://www.w3.org/2000/svg">
<path d="M41 14V34C41 36.7614 38.7614 39 36 39H8C5.23858 39 3 36.7614 3 34V10C3 7.23858 5.23858 5 8 5H14.1833C15.1705 5 16.1355 5.29219 16.9568 5.83975L19.9338 7.82435C21.0836 8.59093 22.4347 9 23.8167 9H36C38.7614 9 41 11.2386 41 14Z" stroke="#4787E8" stroke-width="2" stroke-linecap="round"/>
<path d="M41 14V34C41 36.7614 38.7614 39 36 39H8C5.23858 39 3 36.7614 3 34V18C3 15.2386 5.23858 13 8 13H14.1833C15.5653 13 16.9164 12.5909 18.0662 11.8244L21.0432 9.83975C21.8645 9.29219 22.8295 9 23.8167 9H36C38.7614 9 41 11.2386 41 14Z" stroke="#4787E8" stroke-width="2" stroke-linecap="round"/>
</svg>
