<svg width="44" height="44" viewBox="0 0 44 44" fill="none" xmlns="http://www.w3.org/2000/svg">
<circle cx="14.5" cy="13.5" r="6.5" stroke="#4787E8" stroke-width="2" stroke-linecap="round"/>
<circle cx="32.5" cy="15.5" r="4.5" stroke="#4787E8" stroke-width="2" stroke-linecap="round"/>
<path d="M26 26.3018C26 31.5176 21.003 36 14.5 36C7.99705 36 3 31.5176 3 26.3018C3 24.973 3.31369 24.2775 3.70062 23.878C4.1007 23.465 4.74539 23.194 5.77726 23.0734C6.80949 22.9528 8.07283 22.9983 9.57736 23.0843C9.81736 23.098 10.0628 23.1127 10.3133 23.1277C11.6032 23.2049 13.0239 23.2899 14.5 23.2899C15.9761 23.2899 17.3968 23.2049 18.6867 23.1277C18.9372 23.1127 19.1826 23.098 19.4226 23.0843C20.9272 22.9983 22.1905 22.9528 23.2227 23.0734C24.2546 23.194 24.8993 23.465 25.2994 23.878C25.6863 24.2775 26 24.973 26 26.3018Z" stroke="#4787E8" stroke-width="2" stroke-linecap="round"/>
<path d="M29.48 23.0127C30.6096 23.0558 31.9211 23.1933 33.32 23.1933C37.5615 23.1933 41 21.9289 41 25.8679C41 29.8068 37.5615 33 33.32 33C31.7181 33 30.2308 32.5446 29 31.7655" stroke="#4787E8" stroke-width="2" stroke-linecap="round"/>
</svg>
