<svg width="44" height="44" viewBox="0 0 44 44" fill="none" xmlns="http://www.w3.org/2000/svg">
<circle cx="14.5" cy="13.5" r="7.5" fill="#5C7DF6"/>
<path d="M27 26.3018C27 32.2102 21.4036 37 14.5 37C7.59644 37 2 32.2102 2 26.3018C2 20.3933 7.59644 22.2899 14.5 22.2899C21.4036 22.2899 27 20.3933 27 26.3018Z" fill="#5C7DF6"/>
<path fill-rule="evenodd" clip-rule="evenodd" d="M31.5 21C34.5376 21 37 18.5376 37 15.5C37 12.4624 34.5376 10 31.5 10C28.4624 10 26 12.4624 26 15.5C26 18.5376 28.4624 21 31.5 21ZM40 25.8679C40 29.8068 36.5615 33 32.32 33C30.9541 33 29.6714 32.6688 28.5601 32.0883C28.2113 31.9061 28.0361 31.5161 28.0874 31.126C28.3375 29.2258 28.6508 26.237 28.6081 24.3203C28.5934 23.6586 29.1347 23.0441 29.7951 23.087C30.5859 23.1383 31.4355 23.1933 32.32 23.1933C33.2068 23.1933 34.0585 23.138 34.8511 23.0866C37.8491 22.892 40 22.7524 40 25.8679Z" fill="url(#paint0_linear_37_15)"/>
<defs>
<linearGradient id="paint0_linear_37_15" x1="28.5" y1="19" x2="37.6008" y2="39.3494" gradientUnits="userSpaceOnUse">
<stop offset="0.235192" stop-color="#9AB0FD"/>
<stop offset="0.82007" stop-color="#C3D5AD"/>
</linearGradient>
</defs>
</svg>
