<svg width="1280" height="640" viewBox="0 0 1280 640" fill="none" xmlns="http://www.w3.org/2000/svg">
<rect width="1280" height="640" fill="#8D00FB"/>
<path d="M934.954 334.781C935.242 347.309 938.05 358.11 943.378 367.183C948.851 376.255 955.763 380.791 964.115 380.791C976.644 380.791 986.725 376.039 994.357 366.535L999.542 369.127C995.365 376.039 989.893 381.079 983.125 384.248C976.5 387.416 967.716 389 956.771 389C951.155 389 945.682 388.208 940.354 386.624C935.026 384.896 929.697 382.16 924.369 378.415C919.185 374.527 914.937 368.839 911.624 361.35C908.456 353.862 906.872 344.933 906.872 334.565C906.872 322.036 911.264 311.451 920.049 302.811C928.977 294.026 940.498 289.634 954.611 289.634C970.02 289.634 981.973 294.026 990.469 302.811C998.966 311.451 1003.21 322.108 1003.21 334.781H934.954ZM935.17 328.084H974.484C973.62 317.86 971.82 310.011 969.084 304.539C966.492 298.923 962.243 296.114 956.339 296.114C951.155 296.114 946.474 298.779 942.298 304.107C938.266 309.291 935.89 317.284 935.17 328.084Z" fill="white"/>
<path d="M869.586 260.473V291.794H888.163V298.275H869.586V366.967C869.586 371.431 870.378 374.887 871.962 377.335C873.546 379.64 876.498 380.792 880.819 380.792C883.411 380.792 886.003 379.568 888.595 377.119C891.331 374.527 893.203 370.999 894.212 366.535L899.396 369.127C896.372 382.376 887.731 389 873.474 389C862.242 389 854.033 386.48 848.849 381.44C843.809 376.255 841.288 367.831 841.288 356.166V298.275H826.167V291.794C834.664 291.794 842.08 288.626 848.417 282.29C854.753 275.809 857.921 268.537 857.921 260.473H869.586Z" fill="white"/>
<path d="M767.398 386.84V382.304C775.175 382.304 779.711 380.864 781.007 377.983V304.755C773.519 304.179 768.983 303.891 767.398 303.891V298.923C770.135 298.923 776.759 297.411 787.272 294.387C797.784 291.218 804.697 289.634 808.009 289.634V377.983C809.305 380.864 813.841 382.304 821.618 382.304V386.84H767.398ZM793.968 275.809C790.512 275.809 786.984 274.585 783.383 272.137C779.927 269.545 778.199 266.521 778.199 263.065C778.199 260.041 779.783 257.232 782.951 254.64C786.264 252.048 789.72 250.752 793.32 250.752C796.776 250.752 800.232 252.048 803.689 254.64C807.289 257.088 809.089 260.113 809.089 263.713C809.089 266.737 807.433 269.545 804.121 272.137C800.952 274.585 797.568 275.809 793.968 275.809Z" fill="white"/>
<path d="M673.314 386.84V382.304C681.091 382.304 685.627 380.863 686.923 377.983V304.755C679.147 304.179 674.611 303.891 673.314 303.891V298.923C676.051 298.923 682.675 297.41 693.188 294.386C703.7 291.218 710.613 289.634 713.925 289.634V298.707C721.413 292.658 728.542 289.634 735.31 289.634C753.167 289.634 762.096 293.954 762.096 302.595C762.096 306.051 761.016 308.787 758.855 310.803C756.839 312.819 754.319 313.827 751.295 313.827C747.983 313.827 745.463 312.963 743.735 311.235C742.007 309.507 740.926 307.563 740.494 305.403C740.062 303.243 739.198 301.299 737.902 299.571C736.75 297.843 735.022 296.978 732.718 296.978C727.246 296.978 720.981 300.003 713.925 306.051V377.983C715.221 380.863 719.757 382.304 727.534 382.304V386.84H673.314Z" fill="white"/>
<path d="M604.534 386.84L579.909 325.061L555.283 386.84H537.138L502.792 300.651C501.496 297.771 496.96 296.331 489.183 296.331V291.795H538.65V296.331C534.474 296.331 531.45 296.619 529.578 297.195L555.283 360.487L574.725 311.884L570.188 300.651C568.892 297.771 564.356 296.331 556.579 296.331V291.795H606.046V296.331C601.87 296.331 598.846 296.619 596.974 297.195L622.679 360.487L647.305 298.707C645.289 297.123 641.256 296.331 635.208 296.331V291.795H670.634V296.331C663.29 296.331 658.898 297.483 657.457 299.787L622.679 386.84H604.534Z" fill="white"/>
<path d="M419.814 334.781C420.102 347.309 422.91 358.11 428.238 367.183C433.71 376.255 440.623 380.791 448.975 380.791C461.504 380.791 471.585 376.039 479.217 366.535L484.401 369.127C480.225 376.039 474.753 381.079 467.984 384.248C461.36 387.416 452.576 389 441.631 389C436.015 389 430.542 388.208 425.214 386.624C419.886 384.896 414.557 382.16 409.229 378.415C404.045 374.527 399.796 368.839 396.484 361.35C393.316 353.862 391.732 344.933 391.732 334.565C391.732 322.036 396.124 311.451 404.909 302.811C413.837 294.026 425.358 289.634 439.471 289.634C454.88 289.634 466.832 294.026 475.329 302.811C483.825 311.451 488.074 322.108 488.074 334.781H419.814ZM420.03 328.084H459.344C458.48 317.86 456.68 310.011 453.944 304.539C451.351 298.923 447.103 296.114 441.199 296.114C436.015 296.114 431.334 298.779 427.158 304.107C423.126 309.291 420.75 317.284 420.03 328.084Z" fill="white"/>
<path d="M323.869 386.84L289.523 300.651C288.227 297.771 283.691 296.331 275.914 296.331V291.795H325.381V296.331C321.205 296.331 318.181 296.619 316.309 297.195L342.014 360.487L366.64 298.707C364.624 297.123 360.591 296.331 354.543 296.331V291.795H389.969V296.331C382.049 296.331 377.512 297.771 376.36 300.651L342.014 386.84H323.869Z" fill="white"/>
</svg>
