<svg width="1078" height="200" viewBox="0 0 1078 200" fill="none" xmlns="http://www.w3.org/2000/svg">
<rect x="44" y="50" width="100" height="100" rx="10" fill="#0D1E38"/>
<rect x="44.5" y="50.5" width="99" height="99" rx="9.5" stroke="black" stroke-opacity="0.1"/>
<rect x="164" y="50" width="100" height="100" rx="10" fill="#1864DA"/>
<rect x="164.5" y="50.5" width="99" height="99" rx="9.5" stroke="black" stroke-opacity="0.1"/>
<rect x="284" y="50" width="100" height="100" rx="10" fill="#9AB0FD"/>
<rect x="284.5" y="50.5" width="99" height="99" rx="9.5" stroke="black" stroke-opacity="0.1"/>
<rect x="404" y="50" width="100" height="100" rx="10" fill="#C3D5AD"/>
<rect x="404.5" y="50.5" width="99" height="99" rx="9.5" stroke="black" stroke-opacity="0.1"/>
<rect x="524" y="50" width="100" height="100" rx="10" fill="#F7F8FC"/>
<rect x="524.5" y="50.5" width="99" height="99" rx="9.5" stroke="black" stroke-opacity="0.1"/>
<rect x="644" y="50" width="100" height="100" rx="10" fill="white"/>
<rect x="644.5" y="50.5" width="99" height="99" rx="9.5" stroke="black" stroke-opacity="0.1"/>
<rect x="804" y="50" width="100" height="100" rx="10" fill="url(#paint0_linear_1_32)"/>
<rect x="804.5" y="50.5" width="99" height="99" rx="9.5" stroke="black" stroke-opacity="0.1"/>
<rect x="924" y="50" width="100" height="100" rx="10" fill="url(#paint1_linear_1_32)"/>
<rect x="924.5" y="50.5" width="99" height="99" rx="9.5" stroke="black" stroke-opacity="0.1"/>
<path d="M775 85V115.5" stroke="black" stroke-opacity="0.1"/>
<defs>
<linearGradient id="paint0_linear_1_32" x1="816.4" y1="90.7452" x2="848.99" y2="156.088" gradientUnits="userSpaceOnUse">
<stop stop-color="#9AB1FD"/>
<stop offset="1" stop-color="#6C8DFB"/>
</linearGradient>
<linearGradient id="paint1_linear_1_32" x1="937.325" y1="32.5129" x2="1031.89" y2="46.7813" gradientUnits="userSpaceOnUse">
<stop offset="0.0897277" stop-color="#C3D5AD"/>
<stop offset="0.776664" stop-color="#BFCDFF"/>
</linearGradient>
</defs>
</svg>
