<svg width="1600" height="822" viewBox="0 0 1600 822" fill="none" xmlns="http://www.w3.org/2000/svg">
<rect width="1600" height="821.687" fill="#0D1E38"/>
<path d="M1171.68 373.13C1178.5 373.13 1184.33 374.53 1189.18 377.33C1194.13 380.036 1197.96 383.956 1200.66 389.089C1203.37 394.129 1204.72 400.288 1204.72 407.568V416.527H1154.61C1154.79 423.434 1156.71 428.8 1160.34 432.626C1163.98 436.359 1169.02 438.226 1175.46 438.226C1180.41 438.226 1184.8 437.759 1188.62 436.826C1192.54 435.8 1196.56 434.353 1200.66 432.486V446.626C1196.93 448.399 1193.06 449.705 1189.04 450.545C1185.03 451.385 1180.22 451.805 1174.62 451.805C1167.25 451.805 1160.67 450.405 1154.89 447.605C1149.19 444.712 1144.71 440.373 1141.45 434.586C1138.27 428.8 1136.69 421.614 1136.69 413.028C1136.69 404.348 1138.13 397.069 1141.03 391.189C1144.01 385.216 1148.12 380.736 1153.35 377.75C1158.57 374.67 1164.68 373.13 1171.68 373.13ZM1171.68 386.149C1167.02 386.149 1163.19 387.689 1160.2 390.769C1157.31 393.756 1155.59 398.235 1155.03 404.208H1187.64C1187.64 400.662 1187.04 397.535 1185.82 394.829C1184.7 392.122 1182.98 390.022 1180.64 388.529C1178.31 386.943 1175.32 386.149 1171.68 386.149Z" fill="white"/>
<path d="M1113.69 437.667C1115.93 437.667 1118.08 437.48 1120.13 437.107C1122.19 436.64 1124.1 436.127 1125.87 435.567V448.726C1124.01 449.566 1121.58 450.266 1118.59 450.826C1115.61 451.479 1112.48 451.806 1109.21 451.806C1104.92 451.806 1101 451.106 1097.46 449.706C1094 448.213 1091.2 445.693 1089.06 442.146C1087 438.6 1085.98 433.654 1085.98 427.307V387.83H1075.76V380.13L1086.96 373.971L1092.56 357.872H1103.62V374.531H1125.17V387.83H1103.62V427.167C1103.62 430.714 1104.55 433.374 1106.42 435.147C1108.28 436.827 1110.71 437.667 1113.69 437.667Z" fill="white"/>
<path d="M1061.74 374.53V450.405H1044.1V374.53H1061.74ZM1052.92 345.272C1055.54 345.272 1057.82 345.972 1059.78 347.372C1061.74 348.678 1062.72 351.058 1062.72 354.511C1062.72 357.871 1061.74 360.298 1059.78 361.791C1057.82 363.191 1055.54 363.891 1052.92 363.891C1050.22 363.891 1047.88 363.191 1045.92 361.791C1044.06 360.298 1043.12 357.871 1043.12 354.511C1043.12 351.058 1044.06 348.678 1045.92 347.372C1047.88 345.972 1050.22 345.272 1052.92 345.272Z" fill="white"/>
<path d="M1022.34 373.13C1023.46 373.13 1024.77 373.177 1026.26 373.27C1027.75 373.364 1029.01 373.55 1030.04 373.83L1028.5 390.209C1027.66 390.022 1026.54 389.882 1025.14 389.789C1023.83 389.602 1022.67 389.509 1021.64 389.509C1018.84 389.509 1016.13 389.976 1013.52 390.909C1011 391.749 1008.71 393.056 1006.66 394.829C1004.7 396.509 1003.11 398.702 1001.9 401.408C1000.78 404.115 1000.22 407.335 1000.22 411.068V450.405H982.582V374.53H996.161L998.681 387.689H999.521C1001.01 384.983 1002.88 382.556 1005.12 380.41C1007.36 378.17 1009.93 376.397 1012.82 375.09C1015.81 373.783 1018.98 373.13 1022.34 373.13Z" fill="white"/>
<path d="M920.137 417.787C919.67 416.014 919.11 413.821 918.457 411.208C917.803 408.501 917.103 405.701 916.357 402.808C915.704 399.915 915.05 397.255 914.397 394.829C913.837 392.402 913.464 390.536 913.277 389.229H912.717C912.437 390.536 912.017 392.402 911.457 394.829C910.897 397.255 910.291 399.915 909.637 402.808C908.984 405.701 908.284 408.501 907.537 411.208C906.884 413.914 906.324 416.154 905.858 417.927L897.038 450.405H877.719L856.441 374.39H874.22L883.599 410.648C884.252 413.074 884.859 415.827 885.419 418.907C886.072 421.987 886.632 424.974 887.099 427.867C887.565 430.666 887.892 432.953 888.079 434.726H888.639C888.825 433.513 889.059 431.926 889.339 429.967C889.619 427.913 889.945 425.813 890.319 423.667C890.785 421.427 891.205 419.374 891.578 417.507C892.045 415.641 892.418 414.194 892.698 413.168L903.618 374.39H922.936L933.436 413.168C933.902 414.848 934.416 417.041 934.976 419.747C935.536 422.454 936.049 425.16 936.516 427.867C936.982 430.573 937.262 432.813 937.356 434.586H937.915C938.102 433 938.429 430.853 938.895 428.147C939.362 425.347 939.922 422.36 940.575 419.187C941.229 416.014 941.929 413.168 942.675 410.648L952.195 374.39H969.693L948.135 450.405H928.536L920.137 417.787Z" fill="white"/>
<path d="M818.29 373.13C825.103 373.13 830.936 374.53 835.789 377.33C840.735 380.036 844.561 383.956 847.268 389.089C849.974 394.129 851.328 400.288 851.328 407.568V416.527H801.211C801.397 423.434 803.311 428.8 806.95 432.626C810.59 436.359 815.63 438.226 822.07 438.226C827.016 438.226 831.402 437.759 835.229 436.826C839.148 435.8 843.162 434.353 847.268 432.486V446.626C843.535 448.399 839.662 449.705 835.649 450.545C831.636 451.385 826.829 451.805 821.23 451.805C813.857 451.805 807.277 450.405 801.491 447.605C795.798 444.712 791.318 440.373 788.052 434.586C784.879 428.8 783.292 421.614 783.292 413.028C783.292 404.348 784.739 397.069 787.632 391.189C790.618 385.216 794.725 380.736 799.951 377.75C805.177 374.67 811.29 373.13 818.29 373.13ZM818.29 386.149C813.623 386.149 809.797 387.689 806.81 390.769C803.917 393.756 802.191 398.235 801.631 404.208H834.249C834.249 400.662 833.642 397.535 832.429 394.829C831.309 392.122 829.582 390.022 827.249 388.529C824.916 386.943 821.93 386.149 818.29 386.149Z" fill="white"/>
<path d="M728.849 450.404L700.011 374.529H718.63L733.749 418.346C734.402 420.12 735.009 422.08 735.569 424.226C736.129 426.279 736.595 428.332 736.969 430.386C737.435 432.346 737.715 434.072 737.808 435.565H738.368C738.555 433.979 738.882 432.206 739.348 430.246C739.815 428.192 740.328 426.139 740.888 424.086C741.542 422.033 742.148 420.12 742.708 418.346L757.827 374.529H776.446L747.608 450.404H728.849Z" fill="white"/>
<path d="M623.878 307.371C638.434 315.775 643.421 334.387 635.017 348.943L543.719 507.077C535.315 521.633 516.703 526.62 502.147 518.216C487.591 509.812 482.604 491.2 491.008 476.644L582.306 318.51C590.71 303.955 609.322 298.967 623.878 307.371Z" fill="url(#paint0_linear_56_4)"/>
<path fill-rule="evenodd" clip-rule="evenodd" d="M452.421 318.51C444.017 303.954 425.405 298.967 410.849 307.371C396.293 315.774 391.306 334.387 399.71 348.943L491.008 507.076C499.412 521.632 518.025 526.619 532.58 518.216C538.581 514.751 542.955 509.552 545.436 503.618L576.276 450.347C572.219 454.405 561.669 463.738 551.93 468.607C546.063 471.541 539.901 467.257 535.042 461.614L452.421 318.51Z" fill="url(#paint1_linear_56_4)"/>
<defs>
<linearGradient id="paint0_linear_56_4" x1="643.23" y1="356.005" x2="466.72" y2="453.39" gradientUnits="userSpaceOnUse">
<stop offset="0.0897277" stop-color="#C3D5AD"/>
<stop offset="0.776664" stop-color="#BFCDFF"/>
</linearGradient>
<linearGradient id="paint1_linear_56_4" x1="418.028" y1="392.524" x2="497.154" y2="523.384" gradientUnits="userSpaceOnUse">
<stop stop-color="#9AB1FD"/>
<stop offset="1" stop-color="#6C8DFB"/>
</linearGradient>
</defs>
</svg>
